<svg width="38" height="30" viewBox="0 0 38 30" fill="none" xmlns="http://www.w3.org/2000/svg">
<g clip-path="url(#clip0_1_607)">
<path fill-rule="evenodd" clip-rule="evenodd" d="M17.85 2.5C18.3747 2.50014 18.8861 2.66536 19.3116 2.97226C19.7372 3.27916 20.0554 3.71219 20.2213 4.21L20.9 6.25H25C25.3315 6.25 25.6495 6.3817 25.8839 6.61612C26.1183 6.85054 26.25 7.16848 26.25 7.5C26.25 7.83152 26.1183 8.14946 25.8839 8.38388C25.6495 8.6183 25.3315 8.75 25 8.75L24.9963 8.83875L23.9125 24.0175C23.8449 24.9633 23.4215 25.8483 22.7275 26.4944C22.0336 27.1406 21.1207 27.4999 20.1725 27.5H9.8275C8.87932 27.4999 7.96638 27.1406 7.27246 26.4944C6.57853 25.8483 6.15514 24.9633 6.0875 24.0175L5.00375 8.8375C5.00149 8.80839 5.00024 8.7792 5 8.75C4.66848 8.75 4.35054 8.6183 4.11612 8.38388C3.8817 8.14946 3.75 7.83152 3.75 7.5C3.75 7.16848 3.8817 6.85054 4.11612 6.61612C4.35054 6.3817 4.66848 6.25 5 6.25H9.1L9.77875 4.21C9.94462 3.71199 10.263 3.27881 10.6889 2.97189C11.1147 2.66497 11.6263 2.49987 12.1512 2.5H17.85ZM11.25 12.5C10.9438 12.5 10.6483 12.6124 10.4195 12.8159C10.1907 13.0193 10.0446 13.2997 10.0087 13.6038L10 13.75V21.25C10.0004 21.5686 10.1223 21.875 10.3411 22.1067C10.5598 22.3384 10.8587 22.4778 11.1767 22.4965C11.4948 22.5151 11.808 22.4117 12.0523 22.2072C12.2966 22.0027 12.4536 21.7126 12.4913 21.3963L12.5 21.25V13.75C12.5 13.4185 12.3683 13.1005 12.1339 12.8661C11.8995 12.6317 11.5815 12.5 11.25 12.5ZM18.75 12.5C18.4185 12.5 18.1005 12.6317 17.8661 12.8661C17.6317 13.1005 17.5 13.4185 17.5 13.75V21.25C17.5 21.5815 17.6317 21.8995 17.8661 22.1339C18.1005 22.3683 18.4185 22.5 18.75 22.5C19.0815 22.5 19.3995 22.3683 19.6339 22.1339C19.8683 21.8995 20 21.5815 20 21.25V13.75C20 13.4185 19.8683 13.1005 19.6339 12.8661C19.3995 12.6317 19.0815 12.5 18.75 12.5ZM17.85 5H12.15L11.7338 6.25H18.2662L17.85 5Z" fill="#DB2424"/>
</g>
<rect x="25" y="12.5" width="12.5" height="2.5" rx="1.25" fill="#DB2424"/>
<rect x="25" y="17.5" width="10" height="2.5" rx="1.25" fill="#DB2424"/>
<rect x="25" y="22.5" width="6.25" height="2.5" rx="1.25" fill="#DB2424"/>
<defs>
<clipPath id="clip0_1_607">
<rect width="30" height="30" fill="white"/>
</clipPath>
</defs>
</svg>
