<svg width="24" height="24" viewBox="0 0 24 24" fill="none" xmlns="http://www.w3.org/2000/svg">
<g id="vuesax/linear/key">
<g id="key">
<path id="Vector" d="M19.7199 14.9303C17.7014 16.9803 14.8108 17.6103 12.273 16.8003L7.65782 21.5003C7.32467 21.8503 6.66816 22.0603 6.19783 21.9903L4.06173 21.6903C3.35623 21.5903 2.69972 20.9103 2.59194 20.1903L2.29798 18.0103C2.22939 17.5303 2.45476 16.8603 2.77811 16.5203L7.38346 11.8203C6.59957 9.22031 7.20708 6.27031 9.2256 4.22031C12.1162 1.27031 16.8097 1.27031 19.7101 4.22031C22.6105 7.17031 22.6105 11.9803 19.7199 14.9303Z" stroke="#0A3055" stroke-width="1.5" stroke-miterlimit="10" stroke-linecap="round" stroke-linejoin="round"/>
<path id="Vector_2" d="M7.08008 17.4883L9.33376 19.7883" stroke="#0A3055" stroke-width="1.5" stroke-miterlimit="10" stroke-linecap="round" stroke-linejoin="round"/>
<path id="Vector_3" d="M14.5367 11C15.3484 11 16.0065 10.3284 16.0065 9.5C16.0065 8.67157 15.3484 8 14.5367 8C13.7249 8 13.0669 8.67157 13.0669 9.5C13.0669 10.3284 13.7249 11 14.5367 11Z" stroke="#0A3055" stroke-width="1.5" stroke-linecap="round" stroke-linejoin="round"/>
</g>
</g>
</svg>
