<svg width="20" height="20" viewBox="0 0 20 20" fill="none" xmlns="http://www.w3.org/2000/svg">
<g id="vuesax/linear/eye-slash">
<g id="eye-slash">
<path id="Vector" d="M12.1849 7.89063L8.05318 12.1073C7.52242 11.5656 7.1958 10.824 7.1958 9.99896C7.1958 8.34896 8.50228 7.01562 10.1191 7.01562C10.9274 7.01562 11.6542 7.34896 12.1849 7.89063Z" stroke="#0A3055" stroke-width="1.5" stroke-linecap="round" stroke-linejoin="round"/>
<path id="Vector_2" d="M14.8712 4.80937C13.4422 3.70937 11.8091 3.10938 10.1189 3.10938C7.23643 3.10938 4.54998 4.84271 2.68008 7.84271C1.94518 9.01771 1.94518 10.9927 2.68008 12.1677C3.32515 13.201 4.07638 14.0927 4.89293 14.8094" stroke="#0A3055" stroke-width="1.5" stroke-linecap="round" stroke-linejoin="round"/>
<path id="Vector_3" d="M7.1958 16.276C8.12667 16.676 9.1147 16.8927 10.1191 16.8927C13.0015 16.8927 15.6879 15.1594 17.5578 12.1594C18.2927 10.9844 18.2927 9.00937 17.5578 7.83437C17.2884 7.40104 16.9944 6.99271 16.6923 6.60938" stroke="#0A3055" stroke-width="1.5" stroke-linecap="round" stroke-linejoin="round"/>
<path id="Vector_4" d="M12.9848 10.582C12.7725 11.757 11.8335 12.7154 10.6821 12.932" stroke="#0A3055" stroke-width="1.5" stroke-linecap="round" stroke-linejoin="round"/>
<path id="Vector_5" d="M8.05325 12.1094L1.95361 18.3344" stroke="#0A3055" stroke-width="1.5" stroke-linecap="round" stroke-linejoin="round"/>
<path id="Vector_6" d="M18.2842 1.66797L12.1846 7.89297" stroke="#0A3055" stroke-width="1.5" stroke-linecap="round" stroke-linejoin="round"/>
</g>
</g>
</svg>
